<?xml version="1.0" standalone="no"?>
<!DOCTYPE svg PUBLIC "-//W3C//DTD SVG 1.1//EN" "http://www.w3.org/Graphics/SVG/1.1/DTD/svg11.dtd" >
<svg xmlns="http://www.w3.org/2000/svg" xmlns:xlink="http://www.w3.org/1999/xlink" version="1.1">
<metadata></metadata>
<defs>
<font id="montserrat_alternatesBdIt" horiz-adv-x="1228" >
<font-face units-per-em="2048" ascent="1638" descent="-410" />
<missing-glyph horiz-adv-x="579" />
<glyph unicode="&#xfb01;" horiz-adv-x="1531" d="M37 0l229 1141q36 185 158.5 290t320.5 105q157 0 252 -61l-125 -230q-51 39 -127 39q-72 0 -112.5 -39.5t-59.5 -126.5l-8 -41h281l-49 -246h-273l-168 -831h-319zM956 0l220 1102h317l-219 -1102h-318zM1202 1421q0 81 58.5 136t152.5 55q84 0 136.5 -45.5t52.5 -114.5 q0 -88 -59 -142.5t-154 -54.5q-83 0 -135 48t-52 118z" />
<glyph unicode="&#xfb02;" horiz-adv-x="1466" d="M72 831l49 246h172q52 221 203 340t372 119q220 0 336.5 -106t116.5 -293q0 -61 -12 -129l-168 -828q-4 -16 -4 -45q0 -104 108 -104q46 0 96 20l-34 -248q-82 -26 -172 -26q-150 0 -238 80t-88 221q0 38 10 96l172 854q10 58 10 92q0 162 -157 162q-192 0 -232 -205h271 l-49 -246h-271l-166 -831h-319l166 831h-172z" />
<glyph horiz-adv-x="0" />
<glyph horiz-adv-x="682" />
<glyph horiz-adv-x="0" />
<glyph horiz-adv-x="0" />
<glyph unicode="&#xd;" horiz-adv-x="579" />
<glyph unicode=" "  horiz-adv-x="579" />
<glyph unicode="&#x09;" horiz-adv-x="579" />
<glyph unicode="&#xa0;" horiz-adv-x="579" />
<glyph unicode="!" horiz-adv-x="591" d="M23 156q0 86 59 141t147 55q81 0 134 -48.5t53 -119.5q0 -85 -59.5 -142.5t-145.5 -57.5q-82 0 -135 50t-53 122zM158 498l125 936h381l-252 -936h-254z" />
<glyph unicode="&#x22;" horiz-adv-x="894" d="M184 852l92 582h273l-137 -582h-228zM606 852l92 582h273l-137 -582h-228z" />
<glyph unicode="#" horiz-adv-x="1474" d="M-2 328l43 223h293l106 332h-264l45 223h291l104 328h236l-104 -328h294l105 328h235l-104 -328h266l-43 -223h-295l-104 -332h264l-45 -223h-291l-104 -328h-238l105 328h-295l-105 -328h-235l104 328h-264zM569 551h295l107 332h-295z" />
<glyph unicode="$" horiz-adv-x="1306" d="M-16 137l137 254q168 -123 387 -145l70 346q-49 15 -83 26.5t-79 30.5t-76 39t-64 49t-52.5 62t-32.5 77.5t-13 96.5q0 203 155 332.5t417 148.5l45 225h204l-45 -227q224 -22 377 -117l-125 -254q-132 88 -305 107l-72 -361q69 -20 114.5 -36.5t103 -47.5t92 -66 t58.5 -90.5t24 -123.5q0 -203 -152 -332t-410 -151l-45 -226h-204l45 226q-144 13 -267.5 55t-203.5 102zM510 1016q0 -44 32 -74.5t93 -56.5l59 295q-86 -17 -134 -61t-50 -103zM715 252q83 17 128.5 58.5t45.5 99.5q0 77 -119 122z" />
<glyph unicode="%" horiz-adv-x="1798" d="M152 983q0 130 48 235.5t142.5 168.5t218.5 63q141 0 226 -86t85 -238q0 -130 -47.5 -235t-142 -168.5t-219.5 -63.5q-141 0 -226 86t-85 238zM176 0l1251 1434h259l-1250 -1434h-260zM358 995q0 -84 33 -126t90 -42q62 0 105.5 46.5t61.5 109.5t18 131q0 84 -33 126 t-90 42q-62 0 -105.5 -46.5t-61.5 -109.5t-18 -131zM991 307q0 97 28.5 181.5t80 147.5t129 99.5t170.5 36.5q143 0 228 -85.5t85 -237.5q0 -200 -110.5 -332.5t-298.5 -132.5q-143 0 -227.5 85.5t-84.5 237.5zM1196 317q0 -83 33.5 -125t91.5 -42q61 0 104.5 46.5t61.5 110 t18 131.5q0 83 -33.5 125.5t-89.5 42.5q-62 0 -106 -47t-62 -110.5t-18 -131.5z" />
<glyph unicode="&#x26;" horiz-adv-x="1490" d="M37 336q0 149 101 260t298 205q-90 122 -90 246q0 123 65.5 216.5t174 141t241.5 47.5q172 0 279.5 -77.5t107.5 -215.5q0 -132 -89 -227t-267 -178l213 -240q71 99 119 225l244 -80q-74 -188 -193 -335l129 -148l-213 -201l-131 148q-217 -148 -479 -148 q-227 0 -368.5 98t-141.5 263zM356 391q0 -74 60 -120t172 -46q142 0 276 84l-284 324q-115 -56 -169.5 -112.5t-54.5 -129.5zM639 1077q0 -34 17.5 -70.5t58.5 -88.5q132 59 180.5 107t48.5 108q0 45 -35 73.5t-94 28.5q-79 0 -127.5 -43t-48.5 -115z" />
<glyph unicode="'" horiz-adv-x="471" d="M184 852l92 582h273l-137 -582h-228z" />
<glyph unicode="(" horiz-adv-x="731" d="M117 195q0 370 123 719.5t344 605.5h319q-235 -306 -356 -646t-121 -696q0 -284 94 -575h-293q-48 107 -79 269t-31 323z" />
<glyph unicode=")" horiz-adv-x="731" d="M-121 -397q235 306 356 645.5t121 695.5q0 285 -94 576h293q49 -107 80 -269.5t31 -322.5q0 -370 -123 -719.5t-344 -605.5h-320z" />
<glyph unicode="*" horiz-adv-x="888" d="M111 989l258 127l-197 119l119 172l205 -141l45 254h192l-53 -252l248 135l76 -168l-250 -123l190 -117l-117 -170l-209 142l-45 -256h-194l53 245l-242 -129z" />
<glyph unicode="+" d="M135 592l49 250h355l69 348h266l-69 -348h354l-49 -250h-354l-70 -348h-266l69 348h-354z" />
<glyph unicode="," horiz-adv-x="536" d="M-82 -315l158 329q-80 54 -80 154q0 95 61 154t152 59q82 0 134 -51t52 -133q0 -43 -15.5 -82t-55.5 -101l-205 -329h-201z" />
<glyph unicode="-" horiz-adv-x="790" d="M86 449l51 256h580l-51 -256h-580z" />
<glyph unicode="." horiz-adv-x="536" d="M-4 168q0 95 61 154t152 59q82 0 134 -51t52 -133q0 -93 -62 -153t-149 -60q-82 0 -135 52t-53 132z" />
<glyph unicode="/" horiz-adv-x="802" d="M-221 -205l1050 1929h299l-1052 -1929h-297z" />
<glyph unicode="0" horiz-adv-x="1388" d="M94 518q0 193 55 365.5t152 299t237.5 201t303.5 74.5q239 0 378.5 -144t139.5 -399q0 -193 -55 -365.5t-152 -299t-237.5 -201t-303.5 -74.5q-239 0 -378.5 144t-139.5 399zM428 526q0 -136 56 -203t159 -67q73 0 136.5 42t107.5 110.5t76 154.5t47.5 174t15.5 170 q0 136 -56 203.5t-159 67.5q-73 0 -136.5 -42t-107.5 -110.5t-76 -155t-47.5 -174.5t-15.5 -170z" />
<glyph unicode="1" horiz-adv-x="802" d="M137 1167l53 267h619l-287 -1434h-332l234 1167h-287z" />
<glyph unicode="2" horiz-adv-x="1208" d="M-43 0l43 215l653 512q119 95 165 161t46 138t-54.5 115t-156.5 43q-86 0 -165.5 -39t-139.5 -111l-223 162q88 120 241 191t336 71q225 0 363.5 -108t138.5 -277q0 -132 -73.5 -249t-256.5 -259l-380 -295h602l-54 -270h-1085z" />
<glyph unicode="3" horiz-adv-x="1212" d="M-70 141l160 244q71 -62 172.5 -96.5t214.5 -34.5q147 0 227 54t80 153q0 153 -235 153h-152l43 220l357 333h-607l56 267h1003l-41 -215l-401 -375q149 -34 231 -129t82 -234q0 -220 -187 -363t-478 -143q-158 0 -295.5 43.5t-229.5 122.5z" />
<glyph unicode="4" horiz-adv-x="1411" d="M14 301l43 223l844 910h363l-787 -863h377l53 269h310l-54 -269h236l-56 -270h-235l-59 -301h-324l61 301h-772z" />
<glyph unicode="5" horiz-adv-x="1218" d="M-43 141l160 244q71 -62 172.5 -96.5t214.5 -34.5q147 0 227 54.5t80 154.5q0 164 -279 164h-389l234 807h876l-55 -267h-596l-78 -272h86q265 0 401 -102.5t136 -290.5q0 -158 -85 -278.5t-235 -184.5t-344 -64q-159 0 -295.5 43t-230.5 123z" />
<glyph unicode="6" horiz-adv-x="1304" d="M94 563q0 126 30 249.5t98 241t165.5 206.5t244.5 143.5t324 54.5q118 0 225 -25.5t175 -70.5l-150 -244q-104 70 -270 70q-102 0 -186 -32t-141 -88.5t-94.5 -127t-55.5 -154.5q127 113 329 113q123 0 226 -47t168 -143t65 -224q0 -231 -161 -370.5t-412 -139.5 q-172 0 -301.5 65.5t-204 199.5t-74.5 323zM434 426q0 -86 62.5 -144.5t173.5 -58.5q108 0 179 64t71 170q0 91 -62.5 142.5t-165.5 51.5q-115 0 -186.5 -63t-71.5 -162z" />
<glyph unicode="7" horiz-adv-x="1269" d="M129 930l100 504h1149l-43 -215l-766 -1219h-368l735 1163h-465l-47 -233h-295z" />
<glyph unicode="8" horiz-adv-x="1351" d="M45 379q0 142 76 244t217 157q-117 91 -117 240q0 201 159 319.5t413 118.5q239 0 386.5 -102t147.5 -271q0 -245 -233 -356q157 -105 157 -283q0 -216 -172 -343.5t-452 -127.5q-266 0 -424 110t-158 294zM379 410q0 -88 69 -139.5t185 -51.5q129 0 205.5 60.5 t76.5 164.5q0 87 -67.5 137t-185.5 50q-128 0 -205.5 -59.5t-77.5 -161.5zM551 1018q0 -74 56.5 -117t154.5 -43q106 0 170.5 52t64.5 141q0 76 -57.5 119.5t-153.5 43.5q-107 0 -171 -52.5t-64 -143.5z" />
<glyph unicode="9" horiz-adv-x="1304" d="M16 72l152 243q103 -69 268 -69q103 0 187 31.5t141.5 88t95 127.5t55.5 156q-123 -114 -321 -114q-128 0 -233 46.5t-170.5 142t-65.5 224.5q0 153 75 270t205 178.5t295 61.5q171 0 300 -65.5t203.5 -199.5t74.5 -323q0 -126 -30 -249.5t-97.5 -241t-165.5 -206.5 t-244.5 -143.5t-322.5 -54.5q-119 0 -226 25.5t-176 71.5zM455 977q0 -91 61 -143t164 -52q116 0 188 63.5t72 162.5q0 86 -62.5 144t-172.5 58t-180 -63t-70 -170z" />
<glyph unicode=":" horiz-adv-x="536" d="M-4 168q0 95 61 154t152 59q82 0 134 -51t52 -133q0 -93 -62 -153t-149 -60q-82 0 -135 52t-53 132zM143 903q0 95 61 154t152 59q82 0 134.5 -51.5t52.5 -132.5q0 -93 -62 -153t-149 -60q-82 0 -135.5 52t-53.5 132z" />
<glyph unicode=";" horiz-adv-x="536" d="M-82 -315l158 329q-80 54 -80 154q0 95 61 154t152 59q82 0 134 -51t52 -133q0 -43 -15.5 -82t-55.5 -101l-205 -329h-201zM143 903q0 95 61 154t152 59q82 0 134.5 -51.5t52.5 -132.5q0 -93 -62 -153t-149 -60q-82 0 -135.5 52t-53.5 132z" />
<glyph unicode="&#x3c;" horiz-adv-x="1226" d="M133 584l53 266l1049 371l-53 -269l-733 -250l634 -247l-49 -242z" />
<glyph unicode="=" horiz-adv-x="1226" d="M84 338l49 250h975l-49 -250h-975zM184 846l52 248h974l-51 -248h-975z" />
<glyph unicode="&#x3e;" horiz-adv-x="1226" d="M59 213l56 268l727 250l-629 248l49 242l899 -371l-53 -266z" />
<glyph unicode="?" horiz-adv-x="1206" d="M125 1192q93 124 249.5 195t352.5 71q217 0 346 -93.5t129 -250.5q0 -73 -22.5 -133.5t-59 -104t-81.5 -80.5t-92.5 -70t-88.5 -65.5t-72.5 -74t-42.5 -88.5h-309q12 62 42 115t68.5 91t82 72t84.5 64.5t74.5 61t54 68.5t20.5 81q0 64 -51.5 101.5t-146.5 37.5 q-198 0 -322 -156zM326 156q0 86 59 141t147 55q81 0 134 -48.5t53 -119.5q0 -85 -59.5 -142.5t-145.5 -57.5q-82 0 -135 50t-53 122z" />
<glyph unicode="@" horiz-adv-x="2119" d="M66 369q0 232 84.5 433t233 344.5t361 225.5t459.5 82q198 0 357.5 -54.5t266.5 -153t164.5 -237.5t57.5 -307q0 -188 -62.5 -351t-180 -264t-265.5 -101q-105 0 -174.5 37t-95.5 106q-130 -143 -350 -143q-181 0 -300.5 119.5t-119.5 316.5q0 162 69 298.5t194 218 t279 81.5q227 0 322 -162l31 148h278l-133 -666q-6 -27 -6 -47q0 -82 84 -82q52 0 95.5 46t70.5 118t42 154.5t15 160.5q0 269 -170 419.5t-497 150.5q-195 0 -360.5 -67.5t-279 -184.5t-177.5 -278t-64 -345q0 -279 170 -444.5t475 -165.5q206 0 387 78l45 -189 q-94 -40 -214 -63t-234 -23q-263 0 -458.5 101t-297.5 279.5t-102 410.5zM786 446q0 -108 59.5 -166.5t162.5 -58.5q132 0 215.5 97.5t83.5 240.5q0 107 -61 165t-167 58q-128 0 -210.5 -91.5t-82.5 -244.5z" />
<glyph unicode="A" horiz-adv-x="1630" d="M47 0l164 817q62 318 253 479.5t494 161.5q268 0 422 -136.5t154 -379.5q0 -89 -16 -168l-156 -774h-332l68 344h-654l-69 -344h-328zM496 610h655l37 187q12 64 12 121q0 128 -70.5 193t-203.5 65q-160 0 -255.5 -87.5t-133.5 -277.5z" />
<glyph unicode="B" horiz-adv-x="1566" d="M59 0l287 1434h692q232 0 357 -85t125 -243q0 -131 -68.5 -224.5t-187.5 -142.5q192 -78 192 -286q0 -149 -84.5 -253t-227.5 -152t-333 -48h-752zM440 250h391q139 0 217 53t78 154q0 147 -215 147h-401zM557 846h338q131 0 203.5 52t72.5 151q0 135 -210 135h-336z" />
<glyph unicode="C" horiz-adv-x="1501" d="M104 598q0 182 65 340.5t180.5 273t282.5 180.5t363 66q192 0 340 -66t224 -188l-240 -196q-114 168 -346 168q-158 0 -280.5 -75t-187.5 -201.5t-65 -281.5q0 -165 105.5 -262.5t296.5 -97.5q228 0 381 166l196 -201q-214 -248 -606 -248q-325 0 -517 171.5t-192 451.5z " />
<glyph unicode="D" horiz-adv-x="1691" d="M59 0l287 1434h600q330 0 518.5 -161t188.5 -437q0 -250 -112.5 -440t-315 -293t-465.5 -103h-701zM446 272h324q252 0 399.5 153t147.5 392q0 162 -104.5 253t-303.5 91h-284z" />
<glyph unicode="E" horiz-adv-x="1366" d="M47 367q0 137 82.5 238.5t224.5 146.5q-118 77 -118 229q0 218 190.5 347.5t507.5 129.5q314 0 500 -106l-109 -250q-175 88 -414 88q-164 0 -253 -55t-89 -148q0 -64 50 -97.5t147 -33.5h383l-53 -262h-430q-128 0 -203.5 -48.5t-75.5 -133.5q0 -168 324 -168 q138 0 263.5 33.5t213.5 91.5l86 -248q-110 -67 -273.5 -106.5t-336.5 -39.5q-287 0 -452 104t-165 288z" />
<glyph unicode="F" horiz-adv-x="1259" d="M47 0l178 885q113 573 746 573q119 0 233.5 -27t188.5 -77l-146 -256q-111 78 -293 78q-340 0 -395 -283l-20 -105h585l-53 -268h-586l-104 -520h-334z" />
<glyph unicode="G" horiz-adv-x="1579" d="M104 594q0 184 65 343.5t181.5 274t286 180.5t369.5 66q199 0 352.5 -64t245.5 -186l-238 -192q-71 85 -162 122.5t-215 37.5q-163 0 -289 -74t-193 -200.5t-67 -283.5q0 -167 98 -265.5t277 -98.5q160 0 285 96l78 389h303l-152 -739h-246l15 78q-143 -103 -353 -103 q-183 0 -328 74.5t-229 216t-84 328.5z" />
<glyph unicode="H" horiz-adv-x="1654" d="M59 0l287 1434h334l-113 -564h650l112 564h332l-287 -1434h-332l117 584h-649l-117 -584h-334z" />
<glyph unicode="I" horiz-adv-x="989" d="M-31 0l51 264h250l181 905h-246l51 265h831l-51 -265h-252l-180 -905h248l-51 -264h-832z" />
<glyph unicode="J" horiz-adv-x="1107" d="M-141 -14l219 209q93 -152 252 -152q97 0 155.5 54t81.5 169l178 901h-501l53 267h831l-231 -1151q-54 -274 -192.5 -393t-378.5 -119q-331 0 -467 215z" />
<glyph unicode="K" horiz-adv-x="1515" d="M59 0l287 1434h330l-131 -658l743 658h402l-754 -664l498 -770h-373l-369 561l-231 -205l-72 -356h-330z" />
<glyph unicode="L" horiz-adv-x="1236" d="M59 0l287 1434h334l-234 -1164h719l-55 -270h-1051z" />
<glyph unicode="M" horiz-adv-x="2480" d="M59 0l287 1434h322l-33 -166q163 190 438 190q147 0 248.5 -54t144.5 -153q182 207 482 207q213 0 334.5 -110t121.5 -314q0 -65 -16 -153l-176 -881h-332l172 870q10 55 10 93q0 106 -61.5 159.5t-171.5 53.5q-136 0 -234 -82.5t-131 -243.5l-168 -850h-333l174 870 q10 58 10 95q0 105 -58 158t-165 53q-134 0 -232.5 -81.5t-130.5 -244.5l-168 -850h-334z" />
<glyph unicode="N" horiz-adv-x="1630" d="M59 0l287 1434h322l-29 -150q171 174 428 174q220 0 347.5 -126t127.5 -353q0 -81 -18 -176l-160 -803h-334l164 811q12 65 12 119q0 122 -66 184t-192 62q-147 0 -251.5 -88.5t-141.5 -270.5l-162 -817h-334z" />
<glyph unicode="O" horiz-adv-x="1728" d="M104 598q0 182 65 340.5t180 273t281.5 180.5t360.5 66q323 0 511 -171t188 -451q0 -182 -65 -340.5t-180 -273.5t-281.5 -181t-360.5 -66q-323 0 -511 171.5t-188 451.5zM440 616q0 -163 102.5 -260.5t288.5 -97.5q157 0 278 77t183 203t62 279q0 163 -103 261t-288 98 q-118 0 -217.5 -45t-166 -121.5t-103 -178t-36.5 -215.5z" />
<glyph unicode="P" horiz-adv-x="1499" d="M59 0l287 1434h580q268 0 414.5 -117.5t146.5 -329.5q0 -274 -187.5 -433t-508.5 -159h-320l-78 -395h-334zM524 666h281q165 0 255.5 75t90.5 217q0 103 -69 154t-197 51h-260z" />
<glyph unicode="Q" horiz-adv-x="1728" d="M104 598q0 182 65 340.5t180 273t281.5 180.5t360.5 66q323 0 511 -171t188 -451q0 -225 -95.5 -410.5t-271.5 -302.5t-405 -141l-54 -258h-332l56 274q-228 54 -356 213t-128 387zM440 616q0 -118 55.5 -203.5t159.5 -125.5l58 288h307l-62 -303q182 42 289 194t107 351 q0 163 -103 261t-288 98q-118 0 -217.5 -45t-166 -121.5t-103 -178t-36.5 -215.5z" />
<glyph unicode="R" horiz-adv-x="1505" d="M59 0l287 1434h584q267 0 414 -117t147 -328q0 -201 -108 -344t-302 -203l250 -442h-350l-225 401h-283l-80 -401h-334zM524 666h283q166 0 257 75.5t91 216.5q0 103 -69 154t-199 51h-262z" />
<glyph unicode="S" horiz-adv-x="1306" d="M-16 135l135 256q98 -72 221.5 -110.5t251.5 -38.5q137 0 217 45t80 123q0 36 -24.5 64t-65.5 47t-94.5 35t-112.5 33t-117.5 36.5t-112 49.5t-94.5 68.5t-65.5 97.5t-24.5 132q0 221 179 353t477 132q303 0 495 -123l-125 -254q-163 111 -389 111q-142 0 -223.5 -49 t-81.5 -127q0 -38 24 -66.5t65 -48t94.5 -36t112.5 -33t118 -35.5t112.5 -48t94.5 -66t65.5 -93.5t24.5 -126.5q0 -222 -181 -355t-481 -133q-169 0 -325 45t-250 115z" />
<glyph unicode="T" horiz-adv-x="1306" d="M113 1288q133 82 315 126t369 44q395 0 667 -178l-145 -248q-180 105 -377 133l-233 -1165h-334l235 1171q-232 -25 -411 -133z" />
<glyph unicode="U" horiz-adv-x="1626" d="M156 451q0 85 18 180l160 803h334l-164 -811q-12 -64 -12 -119q0 -122 65.5 -184t190.5 -62q147 0 249.5 87.5t139.5 270.5l163 818h332l-286 -1434h-322l31 152q-171 -177 -422 -177q-221 0 -349 125.5t-128 350.5z" />
<glyph unicode="V" horiz-adv-x="1527" d="M158 1434h342l231 -1022l649 1022h344l-907 -1434h-325z" />
<glyph unicode="W" horiz-adv-x="2473" d="M150 444q0 81 16 152l178 838h330l-187 -883q-10 -55 -10 -88q0 -103 64.5 -154t183.5 -51q279 0 350 328l180 848h328l-186 -871q-11 -48 -11 -94q0 -105 61 -158t177 -53q152 0 239 78t122 244l180 854h327l-180 -848q-66 -319 -242.5 -465t-494.5 -146 q-283 0 -408 166q-181 -166 -467 -166q-252 0 -401 123.5t-149 345.5z" />
<glyph unicode="X" horiz-adv-x="1462" d="M-102 0l686 743l-371 691h354l240 -461l418 461h377l-654 -711l393 -723h-358l-254 487l-434 -487h-397z" />
<glyph unicode="Y" horiz-adv-x="1607" d="M72 -27l166 248q183 -162 440 -162q173 0 275 89t141 284l14 70q-163 -160 -408 -160q-224 0 -352.5 125t-128.5 352q0 80 19 180l86 435h333l-90 -443q-12 -65 -12 -117q0 -124 67 -186.5t193 -62.5q147 0 250.5 88t138.5 270l90 451h334l-205 -1016 q-126 -639 -759 -639q-379 0 -592 194z" />
<glyph unicode="Z" horiz-adv-x="1394" d="M-25 0l41 203l410 403h-213l49 248h416l319 313h-766l54 267h1204l-41 -201l-391 -385h198l-49 -246h-397l-340 -336h815l-55 -266h-1254z" />
<glyph unicode="[" horiz-adv-x="755" d="M-23 -397l383 1917h555l-49 -252h-233l-283 -1413h234l-49 -252h-558z" />
<glyph unicode="\" horiz-adv-x="802" d="M145 1724h275l301 -1929h-275z" />
<glyph unicode="]" horiz-adv-x="753" d="M-156 -397l50 252h233l283 1413h-236l51 252h555l-383 -1917h-553z" />
<glyph unicode="^" d="M66 289l540 856h254l199 -856h-232l-131 606l-372 -606h-258z" />
<glyph unicode="_" horiz-adv-x="1024" d="M-147 -184l36 184h1024l-36 -184h-1024z" />
<glyph unicode="`" d="M379 1538h342l217 -295h-248z" />
<glyph unicode="a" horiz-adv-x="1519" d="M61 477q0 137 47.5 256.5t129 203.5t194 132.5t238.5 48.5q254 0 358 -166l29 150h319l-143 -715q-4 -16 -4 -45q0 -104 112 -104q56 0 93 16l-33 -244q-82 -26 -174 -26q-119 0 -196 47t-105 131q-145 -178 -389 -178q-130 0 -237 57t-173 171t-66 265zM383 492 q0 -113 66.5 -178.5t185.5 -65.5q142 0 232.5 101t90.5 261q0 114 -66 179t-185 65q-142 0 -233 -101t-91 -261z" />
<glyph unicode="b" horiz-adv-x="1413" d="M39 0l303 1520h320l-103 -512q132 110 318 110q96 0 182.5 -33.5t152 -95t104 -156t38.5 -208.5q0 -137 -47.5 -256.5t-129.5 -203.5t-194.5 -132.5t-239.5 -48.5q-264 0 -368 180l-33 -164h-303zM457 492q0 -114 65.5 -179t184.5 -65q142 0 232.5 101t90.5 261 q0 113 -66.5 178.5t-185.5 65.5q-140 0 -230.5 -101t-90.5 -261z" />
<glyph unicode="c" horiz-adv-x="1210" d="M59 477q0 182 85.5 328t239.5 229.5t347 83.5q177 0 305 -72t191 -206l-271 -135q-72 149 -245 149q-142 0 -235 -100.5t-93 -259.5q0 -114 67 -180t189 -66q175 0 270 147l236 -147q-80 -125 -218 -194.5t-306 -69.5q-256 0 -409 135t-153 358z" />
<glyph unicode="d" horiz-adv-x="1521" d="M66 477q0 182 81 329.5t220 229.5t307 82q254 0 360 -166l109 568h319l-225 -1133q-6 -24 -6 -47q0 -102 112 -102q56 0 93 16l-33 -244q-82 -26 -174 -26q-238 0 -299 182q-146 -182 -389 -182q-96 0 -182 33.5t-151.5 95t-103.5 156t-38 208.5zM387 492 q0 -113 66.5 -178.5t185.5 -65.5q142 0 233 101t91 261q0 113 -66.5 178.5t-185.5 65.5q-142 0 -233 -101t-91 -261z" />
<glyph unicode="e" horiz-adv-x="1275" d="M61 477q0 182 81.5 328t230.5 229.5t338 83.5q235 0 379.5 -129t144.5 -368q0 -42 -2 -62l-850 -156q43 -163 276 -163q182 0 293 102l133 -211q-183 -147 -460 -147q-258 0 -411 134t-153 359zM381 592l557 102q-12 88 -76.5 136.5t-165.5 48.5q-128 0 -209.5 -78 t-105.5 -209z" />
<glyph unicode="f" horiz-adv-x="753" d="M37 0l229 1141q36 185 158.5 290t320.5 105q157 0 252 -61l-125 -230q-51 39 -127 39q-72 0 -112.5 -39.5t-59.5 -126.5l-8 -41h281l-49 -246h-273l-168 -831h-319z" />
<glyph unicode="g" horiz-adv-x="1433" d="M-16 -268l151 231q65 -55 168 -87t219 -32q161 0 246 70.5t115 214.5l8 47q-132 -123 -336 -123q-210 0 -348.5 126t-138.5 337q0 167 79.5 305t220.5 217.5t314 79.5q129 0 226.5 -48t146.5 -148l35 180h305l-183 -918q-62 -312 -237 -455t-467 -143q-324 0 -524 146z M389 532q0 -100 67 -158.5t185 -58.5q140 0 230 90.5t90 231.5q0 101 -65.5 159t-182.5 58q-141 0 -232.5 -90.5t-91.5 -231.5z" />
<glyph unicode="h" horiz-adv-x="1415" d="M39 0l303 1520h320l-103 -519q140 117 340 117q184 0 292.5 -98t108.5 -279q0 -65 -14 -131l-123 -610h-319l119 590q8 36 8 76q0 86 -47.5 131t-141.5 45q-124 0 -204 -70.5t-109 -212.5l-111 -559h-319z" />
<glyph unicode="i" horiz-adv-x="614" d="M39 0l219 1102h317l-219 -1102h-317zM285 1421q0 81 58.5 136t152.5 55q83 0 135.5 -45.5t52.5 -114.5q0 -88 -59 -142.5t-154 -54.5q-83 0 -134.5 47.5t-51.5 118.5z" />
<glyph unicode="j" horiz-adv-x="626" d="M-369 -352l127 231q55 -39 133 -39q65 0 103 39t55 123l221 1100h320l-219 -1092q-83 -424 -475 -424q-159 0 -265 62zM297 1421q0 81 58.5 136t152.5 55q83 0 135.5 -45.5t52.5 -114.5q0 -88 -59 -142.5t-154 -54.5q-83 0 -134.5 47.5t-51.5 118.5z" />
<glyph unicode="k" horiz-adv-x="1320" d="M39 0l303 1520h320l-170 -850l528 432h416l-576 -479l379 -623h-371l-262 428l-194 -162l-54 -266h-319z" />
<glyph unicode="l" horiz-adv-x="718" d="M102 279q0 36 11 100l229 1141h320l-228 -1133q-4 -16 -4 -45q0 -51 29.5 -77.5t83.5 -26.5q53 0 90 16l-33 -244q-82 -26 -172 -26q-153 0 -239.5 78.5t-86.5 216.5z" />
<glyph unicode="m" horiz-adv-x="2148" d="M39 0l219 1102h303l-24 -115q143 131 346 131q116 0 204.5 -46t133.5 -134q163 180 419 180q181 0 287.5 -97t106.5 -276q0 -61 -15 -135l-121 -610h-319l117 588q8 41 8 84q0 170 -174 170q-232 0 -289 -277l-113 -565h-319l117 588q8 41 8 82q0 172 -174 172 q-232 0 -291 -281l-111 -561h-319z" />
<glyph unicode="n" horiz-adv-x="1415" d="M39 0l219 1102h303l-24 -119q147 135 362 135q185 0 293 -97.5t108 -277.5q0 -67 -14 -133l-123 -610h-319l119 590q8 36 8 76q0 86 -47.5 131t-141.5 45q-124 0 -204 -70.5t-109 -212.5l-111 -559h-319z" />
<glyph unicode="o" horiz-adv-x="1339" d="M59 477q0 181 85 327.5t237.5 230t343.5 83.5q253 0 404 -134.5t151 -358.5q0 -136 -49.5 -254.5t-137 -203.5t-211.5 -134t-268 -49q-252 0 -403.5 135t-151.5 358zM383 492q0 -113 66.5 -178.5t185.5 -65.5q140 0 230.5 101t90.5 261q0 114 -65 179t-184 65 q-142 0 -233 -101t-91 -261z" />
<glyph unicode="p" horiz-adv-x="1413" d="M-41 -397l299 1499h303l-22 -109q137 125 338 125q96 0 182.5 -33.5t152 -95t104 -156t38.5 -208.5q0 -137 -47.5 -256.5t-129.5 -203.5t-194.5 -132.5t-239.5 -48.5q-252 0 -356 163l-108 -544h-320zM457 492q0 -114 65.5 -179t184.5 -65q142 0 232.5 101t90.5 261 q0 113 -66.5 178.5t-185.5 65.5q-140 0 -230.5 -101t-90.5 -261z" />
<glyph unicode="q" horiz-adv-x="1413" d="M61 477q0 137 47.5 256.5t129 203.5t194 132.5t238.5 48.5q269 0 368 -184l33 168h305l-299 -1499h-319l96 487q-130 -106 -317 -106q-130 0 -237 57t-173 171t-66 265zM383 492q0 -113 66.5 -178.5t185.5 -65.5q142 0 232.5 101t90.5 261q0 114 -66 179t-185 65 q-142 0 -233 -101t-91 -261z" />
<glyph unicode="r" horiz-adv-x="882" d="M39 0l219 1102h303l-26 -131q136 147 411 147l-57 -295q-58 4 -74 4q-292 0 -350 -295l-107 -532h-319z" />
<glyph unicode="s" horiz-adv-x="1087" d="M-31 98l123 232q71 -48 175 -76.5t208 -28.5q215 0 215 107q0 28 -25 47t-66 28.5t-93.5 21t-107.5 21.5t-107.5 32t-93.5 51t-66 80t-25 118q0 182 153 284.5t400 102.5q115 0 224 -24.5t184 -67.5l-115 -233q-136 84 -325 84q-105 0 -159 -31t-54 -78q0 -32 32 -53 t83.5 -33t113 -23t123.5 -30t113.5 -48t83.5 -83t32 -129q0 -183 -154.5 -284t-400.5 -101q-144 0 -272.5 32t-198.5 82z" />
<glyph unicode="t" horiz-adv-x="843" d="M98 291q0 35 11 96l190 959h319l-53 -269h273l-50 -246h-272l-88 -442q-4 -16 -4 -45q0 -106 115 -106q69 0 131 38l47 -227q-106 -65 -277 -65q-156 0 -249 82t-93 225z" />
<glyph unicode="u" horiz-adv-x="1511" d="M115 358q0 68 14 134l121 610h319l-116 -590q-9 -44 -9 -80q0 -172 185 -172q121 0 199.5 70.5t107.5 212.5l113 559h319l-143 -719q-4 -28 -4 -41q0 -104 114 -104q53 0 90 16l-32 -244q-82 -26 -172 -26q-122 0 -200.5 49t-105.5 135q-76 -92 -181.5 -138t-223.5 -46 q-181 0 -288 97.5t-107 276.5z" />
<glyph unicode="v" horiz-adv-x="1224" d="M94 1102h316l159 -752l463 752h320l-684 -1102h-330z" />
<glyph unicode="w" horiz-adv-x="2004" d="M96 393q0 50 13 117l114 592h309l-112 -584q-10 -58 -10 -92q0 -174 182 -174q98 0 158 61.5t86 190.5l112 598h309l-110 -584q-10 -58 -10 -92q0 -174 182 -174q101 0 160.5 63.5t85.5 198.5l110 588h310l-115 -613q-50 -254 -198.5 -379.5t-375.5 -125.5 q-121 0 -213 41.5t-145 117.5q-153 -159 -391 -159q-214 0 -332.5 111t-118.5 298z" />
<glyph unicode="x" horiz-adv-x="1218" d="M-109 0l551 565l-292 537h331l174 -324l308 324h352l-531 -551l308 -551h-338l-181 338l-317 -338h-365z" />
<glyph unicode="y" horiz-adv-x="1409" d="M-10 -262l149 229q67 -58 166 -90.5t207 -32.5q156 0 235 69.5t109 219.5l8 35q-142 -115 -338 -115q-179 0 -287 97t-108 276q0 66 14 135l107 541h319l-104 -520q-8 -39 -8 -78q0 -86 46.5 -131t137.5 -45q122 0 201 71t108 213l99 490h319l-186 -930 q-62 -308 -230 -447t-452 -139q-321 0 -512 152z" />
<glyph unicode="z" horiz-adv-x="1132" d="M-29 0l39 193l264 258h-139l43 213h316l198 192h-532l49 246h946l-37 -193l-254 -247h154l-41 -213h-332l-209 -203h568l-50 -246h-983z" />
<glyph unicode="{" horiz-adv-x="802" d="M84 436l49 250h70q88 0 108 96l76 377q37 189 145.5 275t313.5 86h117l-50 -252h-34q-81 0 -123 -35t-56 -109l-67 -333q-22 -109 -62.5 -161.5t-121.5 -72.5q100 -37 100 -154q0 -35 -8 -71l-64 -316q-4 -16 -4 -47q0 -114 119 -114h39l-51 -252h-117 q-153 0 -237.5 75.5t-84.5 208.5q0 29 11 90l71 363q2 10 2 29q0 67 -71 67h-70z" />
<glyph unicode="|" horiz-adv-x="632" d="M-18 -397l383 1917h290l-383 -1917h-290z" />
<glyph unicode="}" horiz-adv-x="802" d="M-158 -397l49 252h37q80 0 121.5 34.5t56.5 108.5l68 334q20 109 61 161t123 72q-102 41 -102 154q0 36 8 72l64 315q4 16 4 47q0 57 -31 86t-88 29h-37l49 252h119q151 0 236.5 -76t85.5 -209q0 -33 -11 -90l-73 -363q-2 -10 -2 -28q0 -68 71 -68h72l-51 -250h-68 q-91 0 -108 -96l-78 -377q-37 -189 -145 -274.5t-312 -85.5h-119z" />
<glyph unicode="~" horiz-adv-x="1226" d="M98 532q27 186 127.5 289t231.5 103q57 0 107 -18.5t84.5 -45t65 -52.5t62.5 -44.5t64 -18.5q61 0 101 42.5t54 117.5h201q-27 -187 -125.5 -289t-230.5 -102q-57 0 -107 18.5t-84.5 44.5t-65 52t-62.5 44.5t-64 18.5q-61 0 -102.5 -43t-55.5 -117h-201z" />
<glyph unicode="&#xa1;" horiz-adv-x="591" d="M-68 -315l248 919h252l-119 -919h-381zM176 918q0 84 59 142t148 58q81 0 133.5 -50.5t52.5 -123.5q0 -84 -58.5 -140t-145.5 -56q-83 0 -136 49t-53 121z" />
<glyph unicode="&#xa2;" horiz-adv-x="1210" d="M59 477q0 260 170.5 438.5t438.5 200.5l47 232h205l-50 -242q256 -51 357 -266l-271 -135q-47 97 -139 133l-117 -586q133 22 209 143l236 -147q-76 -120 -207.5 -189t-292.5 -75l-45 -230h-203l49 248q-181 43 -284 168t-103 307zM383 494q0 -155 119 -218l112 564 q-104 -31 -167.5 -124t-63.5 -222z" />
<glyph unicode="&#xa3;" horiz-adv-x="1368" d="M-49 0l55 266h205l70 352h-207l39 199h209l10 53q30 150 99.5 264t168.5 184t219 105t260 35q264 0 416 -100l-139 -254q-124 72 -299 72q-166 0 -263.5 -74t-131.5 -240l-9 -45h490l-39 -199h-492l-69 -352h702l-53 -266h-1241z" />
<glyph unicode="&#xa4;" horiz-adv-x="1433" d="M72 170l209 209q-82 124 -82 278q0 149 75 271l-202 202l178 187l207 -205q131 78 280 78q152 0 279 -78l207 205l178 -187l-201 -200q76 -129 76 -273q0 -148 -82 -280l207 -207l-178 -186l-217 215q-125 -72 -269 -72q-142 0 -270 72l-217 -215zM451 657 q0 -116 83 -197t203 -81q119 0 204 81.5t85 196.5t-85 197t-204 82q-120 0 -203 -81.5t-83 -197.5z" />
<glyph unicode="&#xa5;" horiz-adv-x="1507" d="M129 184l35 170h383l22 113h-383l35 170h324l-398 797h340l314 -646l567 646h346l-700 -797h307l-35 -170h-383l-22 -113h383l-35 -170h-381l-37 -184h-334l37 184h-385z" />
<glyph unicode="&#xa6;" horiz-adv-x="632" d="M-18 -397l143 716h291l-144 -716h-290zM221 803l144 717h290l-143 -717h-291z" />
<glyph unicode="&#xa7;" horiz-adv-x="1069" d="M-78 -96l121 223q151 -113 334 -113q110 0 169.5 38t59.5 95q0 35 -30 59.5t-78 39.5t-105.5 29.5t-115.5 36t-106 51.5t-78 83t-30 125q0 96 52.5 176t144.5 136q-57 67 -57 170q0 124 74 215t201.5 136.5t291.5 45.5q107 0 221 -25t189 -73l-121 -222q-135 87 -326 87 q-119 0 -182.5 -38.5t-63.5 -95.5q0 -31 23 -54t61.5 -35.5t87 -26.5t99 -26t99 -35t87 -53t61.5 -80.5t23 -115.5q0 -194 -194 -309q57 -67 57 -170q0 -121 -70.5 -212t-192.5 -138t-278 -47q-127 0 -241 31.5t-187 91.5zM346 616q0 -20 7 -36t23.5 -28.5t32.5 -22 t45 -18.5t49.5 -15t57 -15.5t57.5 -15.5q63 25 96.5 63t33.5 84q0 20 -7 37t-23.5 30t-32.5 23t-45 19.5t-49.5 15.5t-57 15.5t-56.5 15.5q-65 -25 -98 -65.5t-33 -86.5z" />
<glyph unicode="&#xa8;" d="M432 1380q0 68 45 112t107 44q58 0 96.5 -35t38.5 -92q0 -68 -46 -112t-108 -44q-58 0 -95.5 34.5t-37.5 92.5zM848 1380q0 69 44 112.5t107 43.5q57 0 95.5 -35t38.5 -92q0 -68 -45 -112t-107 -44q-58 0 -95.5 34.5t-37.5 92.5z" />
<glyph unicode="&#xa9;" horiz-adv-x="1607" d="M113 717q0 149 56 282.5t151.5 230.5t230.5 153.5t287 56.5t286 -55.5t229.5 -151t150.5 -228.5t55 -284t-56.5 -285.5t-152.5 -231.5t-231 -153.5t-285 -56.5t-284 56.5t-230 153.5t-151.5 230.5t-55.5 282.5zM254 717q0 -164 74.5 -299t208 -213t297.5 -78t298.5 78.5 t210.5 214.5t76 301t-74 299t-207.5 210.5t-299.5 76.5t-300 -78t-209 -213t-75 -299zM424 717q0 181 122.5 297t313.5 116q122 0 214.5 -52t135.5 -142l-184 -109q-56 97 -168 97q-82 0 -138 -56.5t-56 -150.5t56 -150.5t138 -56.5q113 0 168 96l184 -106 q-43 -92 -135.5 -144.5t-214.5 -52.5q-191 0 -313.5 116.5t-122.5 297.5z" />
<glyph unicode="&#xaa;" horiz-adv-x="845" d="M158 1032q0 112 92 167.5t242 55.5h170q0 3 1 9.5t1 9.5q0 48 -36.5 75t-105.5 27q-55 0 -113.5 -16t-97.5 -43l-49 139q59 37 141.5 58.5t165.5 21.5q152 0 233 -58t81 -173q0 -37 -9 -80l-71 -357h-205l14 76q-76 -86 -219 -86q-111 0 -173 49.5t-62 124.5zM371 1059 q0 -64 96 -64q100 0 154 68l16 76h-133q-133 0 -133 -80z" />
<glyph unicode="&#xab;" horiz-adv-x="1163" d="M74 551l368 401h293l-364 -409l192 -391h-280zM537 551l368 401h293l-364 -409l192 -391h-281z" />
<glyph unicode="&#xac;" d="M135 594l49 248h975l-119 -606h-264l72 358h-713z" />
<glyph unicode="&#xad;" horiz-adv-x="790" d="M86 449l51 256h580l-51 -256h-580z" />
<glyph unicode="&#xae;" horiz-adv-x="1607" d="M113 717q0 149 56 282.5t151.5 230.5t230.5 153.5t287 56.5t286 -55.5t229.5 -151t150.5 -228.5t55 -284t-56.5 -285.5t-152.5 -231.5t-231 -153.5t-285 -56.5t-284 56.5t-230 153.5t-151.5 230.5t-55.5 282.5zM254 717q0 -164 74.5 -299t208 -213t297.5 -78t298.5 78.5 t210.5 214.5t76 301t-74 299t-207.5 210.5t-299.5 76.5t-300 -78t-209 -213t-75 -299zM522 319v795h346q162 0 254 -76.5t92 -206.5q0 -175 -149 -245l174 -267h-213l-149 230h-9h-133v-230h-213zM733 709h121q72 0 112 32t40 90q0 60 -40 92.5t-112 32.5h-121v-247z" />
<glyph unicode="&#xaf;" d="M387 1300l35 181h756l-35 -181h-756z" />
<glyph unicode="&#xb0;" horiz-adv-x="854" d="M178 1100q0 148 105 250t256 102q149 0 253.5 -102t104.5 -250q0 -147 -104 -248.5t-254 -101.5q-151 0 -256 101.5t-105 248.5zM348 1100q0 -83 54.5 -138t136.5 -55q81 0 135.5 55.5t54.5 137.5q0 83 -54 137.5t-136 54.5t-136.5 -54.5t-54.5 -137.5z" />
<glyph unicode="&#xb1;" horiz-adv-x="1226" d="M16 0l50 252h974l-49 -252h-975zM166 762l49 242h354l68 335h264l-65 -335h354l-49 -242h-355l-65 -336h-266l67 336h-356z" />
<glyph unicode="&#xb2;" horiz-adv-x="880" d="M106 670l27 137l418 297q73 54 101 89.5t28 74.5q0 42 -34.5 66t-102.5 24q-120 0 -203 -86l-139 104q60 74 158 117t225 43q149 0 238 -67t89 -175q0 -77 -42 -139.5t-175 -157.5l-217 -155h377l-33 -172h-715z" />
<glyph unicode="&#xb3;" horiz-adv-x="880" d="M92 754l92 161q56 -39 134 -61.5t153 -22.5q91 0 142 30t51 85q0 82 -134 82h-133l29 139l215 183h-408l33 170h695l-29 -138l-244 -204q100 -20 151.5 -77t51.5 -140q0 -138 -121 -223t-315 -85q-110 0 -208.5 28.5t-154.5 72.5z" />
<glyph unicode="&#xb4;" d="M563 1243l307 295h353l-402 -295h-258z" />
<glyph unicode="&#xb5;" horiz-adv-x="1413" d="M-41 -397l299 1499h320l-117 -590q-8 -39 -8 -80q0 -172 186 -172q119 0 197.5 70.5t107.5 212.5l113 559h319l-219 -1102h-289l25 123q-63 -70 -142.5 -104.5t-160.5 -34.5q-142 0 -221 67l-90 -448h-320z" />
<glyph unicode="&#xb6;" horiz-adv-x="1404" d="M139 1067q0 116 43 203.5t122 141.5t184.5 81t236.5 27h702l-344 -1725h-260l299 1493h-250l-299 -1493h-260l189 942q-159 6 -261 93t-102 237z" />
<glyph unicode="&#xb7;" horiz-adv-x="618" d="M115 561q0 93 61.5 153t149.5 60q84 0 136 -50.5t52 -133.5q0 -93 -62 -153t-149 -60q-81 0 -134.5 53t-53.5 131z" />
<glyph unicode="&#xb8;" d="M166 -432l70 137q64 -31 137 -31q55 0 82.5 18.5t29.5 49.5q3 28 -19 42.5t-69 14.5h-71l98 217h170l-51 -118q68 -9 105.5 -48t37.5 -94q0 -108 -88.5 -169.5t-239.5 -61.5q-114 0 -192 43z" />
<glyph unicode="&#xb9;" horiz-adv-x="880" d="M172 670l33 168h211l102 514h-190l32 168h422l-137 -682h184l-32 -168h-625z" />
<glyph unicode="&#xba;" horiz-adv-x="876" d="M176 1161q0 164 123 269.5t309 105.5q156 0 252 -84t96 -217q0 -166 -122 -271.5t-308 -105.5q-156 0 -253 85t-97 218zM393 1169q0 -63 41.5 -102t110.5 -39q84 0 139 54.5t55 142.5q0 65 -41 103t-108 38q-88 0 -142.5 -56t-54.5 -141z" />
<glyph unicode="&#xbb;" horiz-adv-x="1165" d="M-33 152l365 409l-193 391h281l209 -401l-369 -399h-293zM430 152l365 409l-193 391h281l209 -401l-369 -399h-293z" />
<glyph unicode="&#xbc;" horiz-adv-x="2138" d="M156 584l32 168h211l103 514h-191l33 168h422l-137 -682h184l-33 -168h-624zM348 0l1251 1434h259l-1254 -1434h-256zM1204 172l29 143l485 535h254l-461 -504h213l29 143h195l-29 -143h139l-33 -174h-139l-35 -172h-221l37 172h-463z" />
<glyph unicode="&#xbd;" horiz-adv-x="2138" d="M156 584l32 168h211l103 514h-191l33 168h422l-137 -682h184l-33 -168h-624zM348 0l1251 1434h259l-1254 -1434h-256zM1231 0l26 137l418 297q73 54 101 89.5t28 74.5q0 42 -34.5 66t-102.5 24q-120 0 -203 -86l-139 105q59 74 157.5 116.5t225.5 42.5q150 0 239 -66.5 t89 -174.5q0 -77 -42 -139.5t-175 -157.5l-217 -156h376l-32 -172h-715z" />
<glyph unicode="&#xbe;" horiz-adv-x="2138" d="M76 668l92 161q56 -39 134 -61.5t153 -22.5q91 0 141.5 30t50.5 85q0 82 -133 82h-133l29 139l215 183h-408l33 170h694l-29 -138l-243 -204q99 -20 150.5 -77t51.5 -141q0 -138 -121 -222.5t-315 -84.5q-109 0 -207.5 28.5t-154.5 72.5zM348 0l1251 1434h259 l-1254 -1434h-256zM1204 172l29 143l485 535h254l-461 -504h213l29 143h195l-29 -143h139l-33 -174h-139l-35 -172h-221l37 172h-463z" />
<glyph unicode="&#xbf;" horiz-adv-x="1206" d="M6 0q0 70 22.5 129.5t59 102.5t81.5 80.5t92.5 70.5t88.5 65t72.5 72t42.5 84h309q-13 -68 -51.5 -127.5t-85 -98t-98.5 -78t-94.5 -72t-70.5 -76t-28 -91.5q0 -60 52.5 -95.5t148.5 -35.5q198 0 321 154l213 -156q-92 -125 -248 -195.5t-352 -70.5q-218 0 -346.5 92 t-128.5 246zM489 918q0 85 58.5 142.5t146.5 57.5q82 0 134.5 -50t52.5 -122q0 -86 -58.5 -142t-146.5 -56q-82 0 -134.5 49t-52.5 121z" />
<glyph unicode="&#xc0;" horiz-adv-x="1630" d="M47 0l164 817q62 318 253 479.5t494 161.5q268 0 422 -136.5t154 -379.5q0 -89 -16 -168l-156 -774h-332l68 344h-654l-69 -344h-328zM496 610h655l37 187q12 64 12 121q0 128 -70.5 193t-203.5 65q-160 0 -255.5 -87.5t-133.5 -277.5zM635 1845h342l217 -295h-248z" />
<glyph unicode="&#xc1;" horiz-adv-x="1630" d="M47 0l164 817q62 318 253 479.5t494 161.5q268 0 422 -136.5t154 -379.5q0 -89 -16 -168l-156 -774h-332l68 344h-654l-69 -344h-328zM496 610h655l37 187q12 64 12 121q0 128 -70.5 193t-203.5 65q-160 0 -255.5 -87.5t-133.5 -277.5zM819 1550l307 295h353l-402 -295 h-258z" />
<glyph unicode="&#xc2;" horiz-adv-x="1630" d="M47 0l164 817q62 318 253 479.5t494 161.5q268 0 422 -136.5t154 -379.5q0 -89 -16 -168l-156 -774h-332l68 344h-654l-69 -344h-328zM496 610h655l37 187q12 64 12 121q0 128 -70.5 193t-203.5 65q-160 0 -255.5 -87.5t-133.5 -277.5zM598 1550l311 295h281l231 -295 h-227l-158 154l-198 -154h-240z" />
<glyph unicode="&#xc3;" horiz-adv-x="1630" d="M47 0l164 817q62 318 253 479.5t494 161.5q268 0 422 -136.5t154 -379.5q0 -89 -16 -168l-156 -774h-332l68 344h-654l-69 -344h-328zM496 610h655l37 187q12 64 12 121q0 128 -70.5 193t-203.5 65q-160 0 -255.5 -87.5t-133.5 -277.5zM625 1559q23 145 94 222t178 77 q48 0 92 -20.5t72 -45.5t61 -45.5t60 -20.5q42 0 70.5 30t37.5 81h162q-23 -140 -93.5 -216.5t-176.5 -76.5q-48 0 -93 20t-73 44.5t-61 44.5t-60 20q-41 0 -70.5 -30.5t-38.5 -83.5h-161z" />
<glyph unicode="&#xc4;" horiz-adv-x="1630" d="M47 0l164 817q62 318 253 479.5t494 161.5q268 0 422 -136.5t154 -379.5q0 -89 -16 -168l-156 -774h-332l68 344h-654l-69 -344h-328zM496 610h655l37 187q12 64 12 121q0 128 -70.5 193t-203.5 65q-160 0 -255.5 -87.5t-133.5 -277.5zM688 1688q0 68 45 111.5t107 43.5 q58 0 96.5 -35t38.5 -92q0 -68 -46 -111.5t-108 -43.5q-58 0 -95.5 34.5t-37.5 92.5zM1104 1688q0 69 44 112t107 43q57 0 95.5 -35t38.5 -92q0 -68 -45 -111.5t-107 -43.5q-58 0 -95.5 34.5t-37.5 92.5z" />
<glyph unicode="&#xc5;" horiz-adv-x="1630" d="M47 0l164 817q62 318 253 479.5t494 161.5q268 0 422 -136.5t154 -379.5q0 -89 -16 -168l-156 -774h-332l68 344h-654l-69 -344h-328zM496 610h655l37 187q12 64 12 121q0 128 -70.5 193t-203.5 65q-160 0 -255.5 -87.5t-133.5 -277.5zM803 1792q0 103 73.5 175.5 t180.5 72.5q108 0 182 -72.5t74 -175.5q0 -105 -74 -176.5t-182 -71.5q-107 0 -180.5 72t-73.5 176zM934 1792q0 -54 35 -89.5t88 -35.5q54 0 89.5 35.5t35.5 89.5t-36 89.5t-89 35.5q-51 0 -87 -35.5t-36 -89.5z" />
<glyph unicode="&#xc6;" horiz-adv-x="2236" d="M33 0l160 801q63 312 256 472.5t505 160.5h1344l-53 -265h-756l-64 -315h670l-51 -252h-668l-69 -338h784l-53 -264h-1110l71 362h-561l-71 -362h-334zM492 625h561l104 526h-209q-173 0 -282 -97.5t-146 -285.5z" />
<glyph unicode="&#xc7;" horiz-adv-x="1501" d="M104 598q0 182 65 340.5t180.5 273t282.5 180.5t363 66q192 0 340 -66t224 -188l-240 -196q-114 168 -346 168q-158 0 -280.5 -75t-187.5 -201.5t-65 -281.5q0 -165 105.5 -262.5t296.5 -97.5q228 0 381 166l196 -201q-214 -248 -606 -248h-18l-33 -77q68 -9 105.5 -48 t37.5 -94q0 -108 -88.5 -169.5t-238.5 -61.5q-115 0 -193 43l70 137q64 -31 137 -31q55 0 83 18.5t30 49.5q6 57 -89 57h-71l86 193q-247 46 -387 207.5t-140 398.5z" />
<glyph unicode="&#xc8;" horiz-adv-x="1366" d="M47 367q0 137 82.5 238.5t224.5 146.5q-118 77 -118 229q0 218 190.5 347.5t507.5 129.5q314 0 500 -106l-109 -250q-175 88 -414 88q-164 0 -253 -55t-89 -148q0 -64 50 -97.5t147 -33.5h383l-53 -262h-430q-128 0 -203.5 -48.5t-75.5 -133.5q0 -168 324 -168 q138 0 263.5 33.5t213.5 91.5l86 -248q-110 -67 -273.5 -106.5t-336.5 -39.5q-287 0 -452 104t-165 288zM567 1845h342l217 -295h-247z" />
<glyph unicode="&#xc9;" horiz-adv-x="1366" d="M47 367q0 137 82.5 238.5t224.5 146.5q-118 77 -118 229q0 218 190.5 347.5t507.5 129.5q314 0 500 -106l-109 -250q-175 88 -414 88q-164 0 -253 -55t-89 -148q0 -64 50 -97.5t147 -33.5h383l-53 -262h-430q-128 0 -203.5 -48.5t-75.5 -133.5q0 -168 324 -168 q138 0 263.5 33.5t213.5 91.5l86 -248q-110 -67 -273.5 -106.5t-336.5 -39.5q-287 0 -452 104t-165 288zM752 1550l307 295h352l-401 -295h-258z" />
<glyph unicode="&#xca;" horiz-adv-x="1366" d="M47 367q0 137 82.5 238.5t224.5 146.5q-118 77 -118 229q0 218 190.5 347.5t507.5 129.5q314 0 500 -106l-109 -250q-175 88 -414 88q-164 0 -253 -55t-89 -148q0 -64 50 -97.5t147 -33.5h383l-53 -262h-430q-128 0 -203.5 -48.5t-75.5 -133.5q0 -168 324 -168 q138 0 263.5 33.5t213.5 91.5l86 -248q-110 -67 -273.5 -106.5t-336.5 -39.5q-287 0 -452 104t-165 288zM530 1550l312 295h280l232 -295h-228l-157 154l-199 -154h-240z" />
<glyph unicode="&#xcb;" horiz-adv-x="1366" d="M47 367q0 137 82.5 238.5t224.5 146.5q-118 77 -118 229q0 218 190.5 347.5t507.5 129.5q314 0 500 -106l-109 -250q-175 88 -414 88q-164 0 -253 -55t-89 -148q0 -64 50 -97.5t147 -33.5h383l-53 -262h-430q-128 0 -203.5 -48.5t-75.5 -133.5q0 -168 324 -168 q138 0 263.5 33.5t213.5 91.5l86 -248q-110 -67 -273.5 -106.5t-336.5 -39.5q-287 0 -452 104t-165 288zM621 1688q0 68 44.5 111.5t106.5 43.5q58 0 96.5 -35t38.5 -92q0 -68 -45.5 -111.5t-107.5 -43.5q-58 0 -95.5 34.5t-37.5 92.5zM1036 1688q0 69 44.5 112t107.5 43 q57 0 95 -35t38 -92q0 -68 -45 -111.5t-107 -43.5q-58 0 -95.5 34.5t-37.5 92.5z" />
<glyph unicode="&#xcc;" horiz-adv-x="989" d="M-31 0l51 264h250l181 905h-246l51 265h831l-51 -265h-252l-180 -905h248l-51 -264h-832zM319 1845h343l217 -295h-248z" />
<glyph unicode="&#xcd;" horiz-adv-x="989" d="M-31 0l51 264h250l181 905h-246l51 265h831l-51 -265h-252l-180 -905h248l-51 -264h-832zM504 1550l307 295h352l-401 -295h-258z" />
<glyph unicode="&#xce;" horiz-adv-x="989" d="M-31 0l51 264h250l181 905h-246l51 265h831l-51 -265h-252l-180 -905h248l-51 -264h-832zM283 1550l311 295h280l232 -295h-227l-158 154l-199 -154h-239z" />
<glyph unicode="&#xcf;" horiz-adv-x="989" d="M-31 0l51 264h250l181 905h-246l51 265h831l-51 -265h-252l-180 -905h248l-51 -264h-832zM373 1688q0 68 44.5 111.5t106.5 43.5q58 0 96.5 -35t38.5 -92q0 -68 -45.5 -111.5t-107.5 -43.5q-58 0 -95.5 34.5t-37.5 92.5zM788 1688q0 69 44.5 112t107.5 43q57 0 95 -35 t38 -92q0 -68 -44.5 -111.5t-106.5 -43.5q-58 0 -96 35t-38 92z" />
<glyph unicode="&#xd0;" horiz-adv-x="1718" d="M14 618l45 222h195l119 594h600q330 0 518 -160.5t188 -437.5q0 -250 -112.5 -440t-315 -293t-465.5 -103h-700l123 618h-195zM473 272h324q252 0 399 153t147 392q0 163 -104 253.5t-303 90.5h-285l-63 -321h356l-43 -222h-358z" />
<glyph unicode="&#xd1;" horiz-adv-x="1630" d="M59 0l287 1434h322l-29 -150q171 174 428 174q220 0 347.5 -126t127.5 -353q0 -81 -18 -176l-160 -803h-334l164 811q12 65 12 119q0 122 -66 184t-192 62q-147 0 -251.5 -88.5t-141.5 -270.5l-162 -817h-334zM635 1559q23 145 94 222t178 77q48 0 92 -20.5t72 -45.5 t61 -45.5t60 -20.5q42 0 70.5 30t37.5 81h162q-23 -140 -93.5 -216.5t-176.5 -76.5q-48 0 -93 20t-73 44.5t-61 44.5t-60 20q-41 0 -70 -30.5t-38 -83.5h-162z" />
<glyph unicode="&#xd2;" horiz-adv-x="1728" d="M104 598q0 182 65 340.5t180 273t281.5 180.5t360.5 66q323 0 511 -171t188 -451q0 -182 -65 -340.5t-180 -273.5t-281.5 -181t-360.5 -66q-323 0 -511 171.5t-188 451.5zM440 616q0 -163 102.5 -260.5t288.5 -97.5q157 0 278 77t183 203t62 279q0 163 -103 261t-288 98 q-118 0 -217.5 -45t-166 -121.5t-103 -178t-36.5 -215.5zM688 1845h342l217 -295h-248z" />
<glyph unicode="&#xd3;" horiz-adv-x="1728" d="M104 598q0 182 65 340.5t180 273t281.5 180.5t360.5 66q323 0 511 -171t188 -451q0 -182 -65 -340.5t-180 -273.5t-281.5 -181t-360.5 -66q-323 0 -511 171.5t-188 451.5zM440 616q0 -163 102.5 -260.5t288.5 -97.5q157 0 278 77t183 203t62 279q0 163 -103 261t-288 98 q-118 0 -217.5 -45t-166 -121.5t-103 -178t-36.5 -215.5zM872 1550l308 295h352l-402 -295h-258z" />
<glyph unicode="&#xd4;" horiz-adv-x="1728" d="M104 598q0 182 65 340.5t180 273t281.5 180.5t360.5 66q323 0 511 -171t188 -451q0 -182 -65 -340.5t-180 -273.5t-281.5 -181t-360.5 -66q-323 0 -511 171.5t-188 451.5zM440 616q0 -163 102.5 -260.5t288.5 -97.5q157 0 278 77t183 203t62 279q0 163 -103 261t-288 98 q-118 0 -217.5 -45t-166 -121.5t-103 -178t-36.5 -215.5zM651 1550l312 295h280l232 -295h-228l-157 154l-199 -154h-240z" />
<glyph unicode="&#xd5;" horiz-adv-x="1728" d="M104 598q0 182 65 340.5t180 273t281.5 180.5t360.5 66q323 0 511 -171t188 -451q0 -182 -65 -340.5t-180 -273.5t-281.5 -181t-360.5 -66q-323 0 -511 171.5t-188 451.5zM440 616q0 -163 102.5 -260.5t288.5 -97.5q157 0 278 77t183 203t62 279q0 163 -103 261t-288 98 q-118 0 -217.5 -45t-166 -121.5t-103 -178t-36.5 -215.5zM678 1559q23 145 94 222t178 77q48 0 92 -20.5t72 -45.5t61 -45.5t60 -20.5q42 0 70.5 30t37.5 81h162q-23 -140 -93.5 -216.5t-176.5 -76.5q-48 0 -93 20t-73 44.5t-61 44.5t-60 20q-41 0 -70 -30.5t-38 -83.5h-162 z" />
<glyph unicode="&#xd6;" horiz-adv-x="1728" d="M104 598q0 182 65 340.5t180 273t281.5 180.5t360.5 66q323 0 511 -171t188 -451q0 -182 -65 -340.5t-180 -273.5t-281.5 -181t-360.5 -66q-323 0 -511 171.5t-188 451.5zM440 616q0 -163 102.5 -260.5t288.5 -97.5q157 0 278 77t183 203t62 279q0 163 -103 261t-288 98 q-118 0 -217.5 -45t-166 -121.5t-103 -178t-36.5 -215.5zM741 1688q0 68 45 111.5t107 43.5q58 0 96.5 -35t38.5 -92q0 -68 -46 -111.5t-108 -43.5q-58 0 -95.5 34.5t-37.5 92.5zM1157 1688q0 69 44.5 112t107.5 43q57 0 95 -35t38 -92q0 -68 -45 -111.5t-107 -43.5 q-58 0 -95.5 34.5t-37.5 92.5z" />
<glyph unicode="&#xd7;" horiz-adv-x="1226" d="M182 467l289 258l-219 256l188 172l222 -258l290 258l160 -186l-289 -258l219 -256l-188 -172l-221 258l-291 -258z" />
<glyph unicode="&#xd8;" horiz-adv-x="1728" d="M2 -143l277 303q-175 169 -175 438q0 182 65 340.5t180 273t281.5 180.5t360.5 66q228 0 389 -88l189 207h221l-274 -303q174 -168 174 -438q0 -182 -65 -340.5t-180 -273.5t-281.5 -181t-360.5 -66q-228 0 -389 88l-189 -206h-223zM440 616q0 -124 62 -210l663 729 q-84 41 -202 41t-217.5 -45t-166 -121.5t-103 -178t-36.5 -215.5zM627 299q87 -41 204 -41q157 0 278 77t183 203t62 279q0 127 -62 213z" />
<glyph unicode="&#xd9;" horiz-adv-x="1626" d="M156 451q0 85 18 180l160 803h334l-164 -811q-12 -64 -12 -119q0 -122 65.5 -184t190.5 -62q147 0 249.5 87.5t139.5 270.5l163 818h332l-286 -1434h-322l31 152q-171 -177 -422 -177q-221 0 -349 125.5t-128 350.5zM631 1845h342l217 -295h-248z" />
<glyph unicode="&#xda;" horiz-adv-x="1626" d="M156 451q0 85 18 180l160 803h334l-164 -811q-12 -64 -12 -119q0 -122 65.5 -184t190.5 -62q147 0 249.5 87.5t139.5 270.5l163 818h332l-286 -1434h-322l31 152q-171 -177 -422 -177q-221 0 -349 125.5t-128 350.5zM815 1550l307 295h353l-402 -295h-258z" />
<glyph unicode="&#xdb;" horiz-adv-x="1626" d="M156 451q0 85 18 180l160 803h334l-164 -811q-12 -64 -12 -119q0 -122 65.5 -184t190.5 -62q147 0 249.5 87.5t139.5 270.5l163 818h332l-286 -1434h-322l31 152q-171 -177 -422 -177q-221 0 -349 125.5t-128 350.5zM594 1550l311 295h281l231 -295h-227l-158 154 l-198 -154h-240z" />
<glyph unicode="&#xdc;" horiz-adv-x="1626" d="M156 451q0 85 18 180l160 803h334l-164 -811q-12 -64 -12 -119q0 -122 65.5 -184t190.5 -62q147 0 249.5 87.5t139.5 270.5l163 818h332l-286 -1434h-322l31 152q-171 -177 -422 -177q-221 0 -349 125.5t-128 350.5zM684 1688q0 68 45 111.5t107 43.5q58 0 96.5 -35 t38.5 -92q0 -68 -46 -111.5t-108 -43.5q-58 0 -95.5 34.5t-37.5 92.5zM1100 1688q0 69 44 112t107 43q57 0 95 -35t38 -92q0 -68 -44.5 -111.5t-106.5 -43.5q-58 0 -95.5 34.5t-37.5 92.5z" />
<glyph unicode="&#xdd;" horiz-adv-x="1607" d="M72 -27l166 248q183 -162 440 -162q173 0 275 89t141 284l14 70q-163 -160 -408 -160q-224 0 -352.5 125t-128.5 352q0 80 19 180l86 435h333l-90 -443q-12 -65 -12 -117q0 -124 67 -186.5t193 -62.5q147 0 250.5 88t138.5 270l90 451h334l-205 -1016 q-126 -639 -759 -639q-379 0 -592 194zM807 1550l307 295h352l-401 -295h-258z" />
<glyph unicode="&#xde;" horiz-adv-x="1499" d="M59 0l287 1434h334l-31 -158h252q264 0 409.5 -117.5t145.5 -329.5q0 -272 -187.5 -431.5t-508.5 -159.5h-320l-47 -238h-334zM496 508h278q166 0 256 75t90 216q0 103 -69 155t-197 52h-260z" />
<glyph unicode="&#xdf;" horiz-adv-x="1419" d="M37 0l201 1004q54 269 220 400.5t414 131.5q214 0 340.5 -103t126.5 -276q0 -118 -55.5 -214.5t-157.5 -158.5q95 -43 148 -123.5t53 -189.5q0 -220 -160 -353.5t-409 -133.5q-173 0 -264 41l81 247q68 -26 173 -26q119 0 189.5 56.5t70.5 156.5q0 78 -57 118.5 t-158 40.5h-109l51 252q134 3 214.5 70.5t80.5 179.5q0 73 -48.5 114.5t-135.5 41.5q-112 0 -185.5 -61.5t-97.5 -184.5l-207 -1030h-319z" />
<glyph unicode="&#xe0;" horiz-adv-x="1519" d="M61 477q0 137 47.5 256.5t129 203.5t194 132.5t238.5 48.5q254 0 358 -166l29 150h319l-143 -715q-4 -16 -4 -45q0 -104 112 -104q56 0 93 16l-33 -244q-82 -26 -174 -26q-119 0 -196 47t-105 131q-145 -178 -389 -178q-130 0 -237 57t-173 171t-66 265zM383 492 q0 -113 66.5 -178.5t185.5 -65.5q142 0 232.5 101t90.5 261q0 114 -66 179t-185 65q-142 0 -233 -101t-91 -261zM467 1538h342l217 -295h-248z" />
<glyph unicode="&#xe1;" horiz-adv-x="1519" d="M61 477q0 137 47.5 256.5t129 203.5t194 132.5t238.5 48.5q254 0 358 -166l29 150h319l-143 -715q-4 -16 -4 -45q0 -104 112 -104q56 0 93 16l-33 -244q-82 -26 -174 -26q-119 0 -196 47t-105 131q-145 -178 -389 -178q-130 0 -237 57t-173 171t-66 265zM383 492 q0 -113 66.5 -178.5t185.5 -65.5q142 0 232.5 101t90.5 261q0 114 -66 179t-185 65q-142 0 -233 -101t-91 -261zM651 1243l307 295h353l-402 -295h-258z" />
<glyph unicode="&#xe2;" horiz-adv-x="1519" d="M61 477q0 137 47.5 256.5t129 203.5t194 132.5t238.5 48.5q254 0 358 -166l29 150h319l-143 -715q-4 -16 -4 -45q0 -104 112 -104q56 0 93 16l-33 -244q-82 -26 -174 -26q-119 0 -196 47t-105 131q-145 -178 -389 -178q-130 0 -237 57t-173 171t-66 265zM383 492 q0 -113 66.5 -178.5t185.5 -65.5q142 0 232.5 101t90.5 261q0 114 -66 179t-185 65q-142 0 -233 -101t-91 -261zM430 1243l311 295h281l231 -295h-227l-158 154l-198 -154h-240z" />
<glyph unicode="&#xe3;" horiz-adv-x="1519" d="M61 477q0 137 47.5 256.5t129 203.5t194 132.5t238.5 48.5q254 0 358 -166l29 150h319l-143 -715q-4 -16 -4 -45q0 -104 112 -104q56 0 93 16l-33 -244q-82 -26 -174 -26q-119 0 -196 47t-105 131q-145 -178 -389 -178q-130 0 -237 57t-173 171t-66 265zM383 492 q0 -113 66.5 -178.5t185.5 -65.5q142 0 232.5 101t90.5 261q0 114 -66 179t-185 65q-142 0 -233 -101t-91 -261zM457 1251q23 145 94 222t178 77q48 0 92 -20.5t72 -45t61 -45t60 -20.5q42 0 70.5 30t37.5 81h162q-23 -140 -93.5 -216.5t-176.5 -76.5q-48 0 -93 20t-73 44.5 t-61 44.5t-60 20q-41 0 -70.5 -31t-38.5 -84h-161z" />
<glyph unicode="&#xe4;" horiz-adv-x="1519" d="M61 477q0 137 47.5 256.5t129 203.5t194 132.5t238.5 48.5q254 0 358 -166l29 150h319l-143 -715q-4 -16 -4 -45q0 -104 112 -104q56 0 93 16l-33 -244q-82 -26 -174 -26q-119 0 -196 47t-105 131q-145 -178 -389 -178q-130 0 -237 57t-173 171t-66 265zM383 492 q0 -113 66.5 -178.5t185.5 -65.5q142 0 232.5 101t90.5 261q0 114 -66 179t-185 65q-142 0 -233 -101t-91 -261zM520 1380q0 68 45 112t107 44q58 0 96.5 -35t38.5 -92q0 -68 -46 -112t-108 -44q-58 0 -95.5 34.5t-37.5 92.5zM936 1380q0 69 44 112.5t107 43.5 q57 0 95.5 -35t38.5 -92q0 -68 -45 -112t-107 -44q-58 0 -95.5 34.5t-37.5 92.5z" />
<glyph unicode="&#xe5;" horiz-adv-x="1519" d="M61 477q0 137 47.5 256.5t129 203.5t194 132.5t238.5 48.5q254 0 358 -166l29 150h319l-143 -715q-4 -16 -4 -45q0 -104 112 -104q56 0 93 16l-33 -244q-82 -26 -174 -26q-119 0 -196 47t-105 131q-145 -178 -389 -178q-130 0 -237 57t-173 171t-66 265zM383 492 q0 -113 66.5 -178.5t185.5 -65.5q142 0 232.5 101t90.5 261q0 114 -66 179t-185 65q-142 0 -233 -101t-91 -261zM629 1460q0 103 73.5 175.5t180.5 72.5q108 0 182 -72.5t74 -175.5q0 -105 -74 -176.5t-182 -71.5q-107 0 -180.5 72t-73.5 176zM760 1460q0 -54 35 -89.5 t88 -35.5q54 0 89.5 35.5t35.5 89.5t-36 89.5t-89 35.5q-51 0 -87 -35.5t-36 -89.5z" />
<glyph unicode="&#xe6;" horiz-adv-x="2023" d="M29 299q0 164 129.5 257t373.5 93h283q4 32 4 47q0 80 -58.5 123t-170.5 43q-84 0 -170 -24t-148 -64l-86 227q92 56 217 86.5t244 30.5q288 0 397 -149q175 149 408 149q234 0 377 -128t143 -365q0 -43 -2 -66l-852 -156q22 -84 92 -123.5t193 -39.5q174 0 285 102 l137 -211q-189 -147 -457 -147q-145 0 -263.5 48t-189.5 144q-152 -192 -450 -192q-203 0 -319.5 86.5t-116.5 228.5zM342 322q0 -59 43 -92t129 -33q98 0 164.5 53t87.5 162l10 51h-237q-93 0 -145 -37.5t-52 -103.5zM1116 592l559 102q-12 87 -76.5 136t-162.5 49 q-129 0 -212.5 -78.5t-107.5 -208.5z" />
<glyph unicode="&#xe7;" horiz-adv-x="1210" d="M59 477q0 182 85.5 328t239.5 229.5t347 83.5q177 0 305 -72t191 -206l-271 -135q-72 149 -245 149q-142 0 -235 -100.5t-93 -259.5q0 -114 67 -180t189 -66q175 0 270 147l236 -147q-77 -119 -205.5 -188t-288.5 -76l-37 -86q68 -9 106 -48.5t38 -93.5 q0 -108 -88.5 -169.5t-239.5 -61.5q-114 0 -192 43l69 137q64 -31 137 -31q55 0 83 18.5t30 49.5q3 28 -19 42.5t-69 14.5h-72l88 195q-199 35 -312.5 163.5t-113.5 319.5z" />
<glyph unicode="&#xe8;" horiz-adv-x="1275" d="M61 477q0 182 81.5 328t230.5 229.5t338 83.5q235 0 379.5 -129t144.5 -368q0 -42 -2 -62l-850 -156q43 -163 276 -163q182 0 293 102l133 -211q-183 -147 -460 -147q-258 0 -411 134t-153 359zM381 592l557 102q-12 88 -76.5 136.5t-165.5 48.5q-128 0 -209.5 -78 t-105.5 -209zM406 1536h342l217 -295h-248z" />
<glyph unicode="&#xe9;" horiz-adv-x="1275" d="M61 477q0 182 81.5 328t230.5 229.5t338 83.5q235 0 379.5 -129t144.5 -368q0 -42 -2 -62l-850 -156q43 -163 276 -163q182 0 293 102l133 -211q-183 -147 -460 -147q-258 0 -411 134t-153 359zM381 592l557 102q-12 88 -76.5 136.5t-165.5 48.5q-128 0 -209.5 -78 t-105.5 -209zM590 1241l307 295h352l-401 -295h-258z" />
<glyph unicode="&#xea;" horiz-adv-x="1275" d="M61 477q0 182 81.5 328t230.5 229.5t338 83.5q235 0 379.5 -129t144.5 -368q0 -42 -2 -62l-850 -156q43 -163 276 -163q182 0 293 102l133 -211q-183 -147 -460 -147q-258 0 -411 134t-153 359zM369 1241l311 295h281l231 -295h-227l-158 154l-199 -154h-239zM381 592 l557 102q-12 88 -76.5 136.5t-165.5 48.5q-128 0 -209.5 -78t-105.5 -209z" />
<glyph unicode="&#xeb;" horiz-adv-x="1275" d="M61 477q0 182 81.5 328t230.5 229.5t338 83.5q235 0 379.5 -129t144.5 -368q0 -42 -2 -62l-850 -156q43 -163 276 -163q182 0 293 102l133 -211q-183 -147 -460 -147q-258 0 -411 134t-153 359zM381 592l557 102q-12 88 -76.5 136.5t-165.5 48.5q-128 0 -209.5 -78 t-105.5 -209zM459 1378q0 69 44.5 112.5t106.5 43.5q58 0 96.5 -35t38.5 -92q0 -68 -45.5 -112t-107.5 -44q-58 0 -95.5 34.5t-37.5 92.5zM874 1378q0 69 44.5 112.5t107.5 43.5q57 0 95 -35t38 -92q0 -69 -44.5 -112.5t-106.5 -43.5q-58 0 -96 35t-38 92z" />
<glyph unicode="&#xec;" horiz-adv-x="614" d="M39 0l219 1102h317l-219 -1102h-317zM72 1538h342l217 -295h-248z" />
<glyph unicode="&#xed;" horiz-adv-x="614" d="M39 0l219 1102h317l-219 -1102h-317zM256 1243l307 295h352l-401 -295h-258z" />
<glyph unicode="&#xee;" horiz-adv-x="614" d="M39 0l219 1102h317l-219 -1102h-317zM86 1243l264 295h275l182 -295h-221l-115 143l-152 -143h-233z" />
<glyph unicode="&#xef;" horiz-adv-x="614" d="M39 0l219 1102h317l-219 -1102h-317zM172 1380q0 68 41 112t104 44q54 0 88.5 -37t34.5 -94q0 -66 -40.5 -109t-100.5 -43q-54 0 -90.5 36t-36.5 91zM510 1380q0 67 40.5 111.5t102.5 44.5q53 0 88 -36t35 -91q0 -68 -40 -112t-101 -44q-54 0 -89.5 36t-35.5 91z" />
<glyph unicode="&#xf0;" horiz-adv-x="1345" d="M47 399q0 149 74.5 266.5t208 182.5t301.5 65q240 0 352 -149q6 32 10 100q2 16 2 47q0 144 -63 228l-514 -187l-58 162l390 143q-73 15 -134 15q-149 0 -270 -39l10 246q142 39 312 39q268 0 438 -132l223 82l57 -163l-153 -56q92 -147 92 -346q0 -189 -53.5 -357 t-150.5 -295t-244.5 -201.5t-323.5 -74.5q-226 0 -366 118t-140 306zM367 422q0 -92 60.5 -145.5t166.5 -53.5q122 0 206.5 69.5t84.5 176.5q0 92 -61 145.5t-167 53.5q-130 0 -210 -68.5t-80 -177.5z" />
<glyph unicode="&#xf1;" horiz-adv-x="1415" d="M39 0l219 1102h303l-24 -119q147 135 362 135q185 0 293 -97.5t108 -277.5q0 -67 -14 -133l-123 -610h-319l119 590q8 36 8 76q0 86 -47.5 131t-141.5 45q-124 0 -204 -70.5t-109 -212.5l-111 -559h-319zM467 1251q23 145 94 222t178 77q48 0 92 -20.5t72 -45t61 -45 t60 -20.5q42 0 71 30.5t38 80.5h161q-23 -140 -93.5 -216.5t-176.5 -76.5q-48 0 -93 20t-73 44.5t-61 44.5t-60 20q-41 0 -70 -31t-38 -84h-162z" />
<glyph unicode="&#xf2;" horiz-adv-x="1339" d="M59 477q0 181 85 327.5t237.5 230t343.5 83.5q253 0 404 -134.5t151 -358.5q0 -136 -49.5 -254.5t-137 -203.5t-211.5 -134t-268 -49q-252 0 -403.5 135t-151.5 358zM383 492q0 -113 66.5 -178.5t185.5 -65.5q140 0 230.5 101t90.5 261q0 114 -65 179t-184 65 q-142 0 -233 -101t-91 -261zM428 1538h342l217 -295h-248z" />
<glyph unicode="&#xf3;" horiz-adv-x="1339" d="M59 477q0 181 85 327.5t237.5 230t343.5 83.5q253 0 404 -134.5t151 -358.5q0 -136 -49.5 -254.5t-137 -203.5t-211.5 -134t-268 -49q-252 0 -403.5 135t-151.5 358zM383 492q0 -113 66.5 -178.5t185.5 -65.5q140 0 230.5 101t90.5 261q0 114 -65 179t-184 65 q-142 0 -233 -101t-91 -261zM612 1243l308 295h352l-402 -295h-258z" />
<glyph unicode="&#xf4;" horiz-adv-x="1339" d="M59 477q0 181 85 327.5t237.5 230t343.5 83.5q253 0 404 -134.5t151 -358.5q0 -136 -49.5 -254.5t-137 -203.5t-211.5 -134t-268 -49q-252 0 -403.5 135t-151.5 358zM383 492q0 -113 66.5 -178.5t185.5 -65.5q140 0 230.5 101t90.5 261q0 114 -65 179t-184 65 q-142 0 -233 -101t-91 -261zM391 1243l311 295h281l231 -295h-227l-158 154l-198 -154h-240z" />
<glyph unicode="&#xf5;" horiz-adv-x="1339" d="M59 477q0 181 85 327.5t237.5 230t343.5 83.5q253 0 404 -134.5t151 -358.5q0 -136 -49.5 -254.5t-137 -203.5t-211.5 -134t-268 -49q-252 0 -403.5 135t-151.5 358zM383 492q0 -113 66.5 -178.5t185.5 -65.5q140 0 230.5 101t90.5 261q0 114 -65 179t-184 65 q-142 0 -233 -101t-91 -261zM418 1251q23 145 94 222t178 77q48 0 92 -20.5t72 -45t61 -45t60 -20.5q42 0 70.5 30t37.5 81h162q-23 -140 -93.5 -216.5t-176.5 -76.5q-48 0 -93 20t-73 44.5t-61 44.5t-60 20q-41 0 -70 -31t-38 -84h-162z" />
<glyph unicode="&#xf6;" horiz-adv-x="1339" d="M59 477q0 181 85 327.5t237.5 230t343.5 83.5q253 0 404 -134.5t151 -358.5q0 -136 -49.5 -254.5t-137 -203.5t-211.5 -134t-268 -49q-252 0 -403.5 135t-151.5 358zM383 492q0 -113 66.5 -178.5t185.5 -65.5q140 0 230.5 101t90.5 261q0 114 -65 179t-184 65 q-142 0 -233 -101t-91 -261zM481 1380q0 68 45 112t107 44q58 0 96.5 -35t38.5 -92q0 -68 -46 -112t-108 -44q-58 0 -95.5 34.5t-37.5 92.5zM897 1380q0 69 44.5 112.5t107.5 43.5q57 0 95 -35t38 -92q0 -68 -45 -112t-107 -44q-58 0 -95.5 34.5t-37.5 92.5z" />
<glyph unicode="&#xf7;" horiz-adv-x="1226" d="M135 592l49 250h975l-49 -250h-975zM391 276q0 80 53 132.5t129 52.5q67 0 112.5 -43t45.5 -111q0 -79 -53 -132.5t-129 -53.5q-68 0 -113 44t-45 111zM561 1128q0 82 52.5 133.5t129.5 51.5q69 0 113.5 -42t44.5 -110q0 -81 -53 -134.5t-129 -53.5q-67 0 -112.5 44 t-45.5 111z" />
<glyph unicode="&#xf8;" horiz-adv-x="1339" d="M-4 -143l219 258q-156 137 -156 362q0 181 85 327.5t237.5 230t343.5 83.5q165 0 289 -59l151 180h168l-211 -250q158 -136 158 -364q0 -136 -49.5 -254.5t-137 -203.5t-211.5 -134t-268 -49q-162 0 -290 61l-160 -188h-168zM383 492q0 -82 35 -138l403 480 q-47 20 -114 20q-142 0 -233 -101t-91 -261zM514 270q55 -22 121 -22q140 0 230.5 101t90.5 261q0 84 -34 142z" />
<glyph unicode="&#xf9;" horiz-adv-x="1511" d="M115 358q0 68 14 134l121 610h319l-116 -590q-9 -44 -9 -80q0 -172 185 -172q121 0 199.5 70.5t107.5 212.5l113 559h319l-143 -719q-4 -28 -4 -41q0 -104 114 -104q53 0 90 16l-32 -244q-82 -26 -172 -26q-122 0 -200.5 49t-105.5 135q-76 -92 -181.5 -138t-223.5 -46 q-181 0 -288 97.5t-107 276.5zM463 1538h342l217 -295h-248z" />
<glyph unicode="&#xfa;" horiz-adv-x="1511" d="M115 358q0 68 14 134l121 610h319l-116 -590q-9 -44 -9 -80q0 -172 185 -172q121 0 199.5 70.5t107.5 212.5l113 559h319l-143 -719q-4 -28 -4 -41q0 -104 114 -104q53 0 90 16l-32 -244q-82 -26 -172 -26q-122 0 -200.5 49t-105.5 135q-76 -92 -181.5 -138t-223.5 -46 q-181 0 -288 97.5t-107 276.5zM647 1243l307 295h353l-402 -295h-258z" />
<glyph unicode="&#xfb;" horiz-adv-x="1511" d="M115 358q0 68 14 134l121 610h319l-116 -590q-9 -44 -9 -80q0 -172 185 -172q121 0 199.5 70.5t107.5 212.5l113 559h319l-143 -719q-4 -28 -4 -41q0 -104 114 -104q53 0 90 16l-32 -244q-82 -26 -172 -26q-122 0 -200.5 49t-105.5 135q-76 -92 -181.5 -138t-223.5 -46 q-181 0 -288 97.5t-107 276.5zM426 1243l311 295h281l231 -295h-227l-158 154l-198 -154h-240z" />
<glyph unicode="&#xfc;" horiz-adv-x="1511" d="M115 358q0 68 14 134l121 610h319l-116 -590q-9 -44 -9 -80q0 -172 185 -172q121 0 199.5 70.5t107.5 212.5l113 559h319l-143 -719q-4 -28 -4 -41q0 -104 114 -104q53 0 90 16l-32 -244q-82 -26 -172 -26q-122 0 -200.5 49t-105.5 135q-76 -92 -181.5 -138t-223.5 -46 q-181 0 -288 97.5t-107 276.5zM516 1380q0 68 45 112t107 44q58 0 96.5 -35t38.5 -92q0 -68 -46 -112t-108 -44q-58 0 -95.5 34.5t-37.5 92.5zM932 1380q0 69 44 112.5t107 43.5q57 0 95.5 -35t38.5 -92q0 -68 -45 -112t-107 -44q-58 0 -95.5 34.5t-37.5 92.5z" />
<glyph unicode="&#xfd;" horiz-adv-x="1409" d="M-10 -262l149 229q67 -58 166 -90.5t207 -32.5q156 0 235 69.5t109 219.5l8 35q-142 -115 -338 -115q-179 0 -287 97t-108 276q0 66 14 135l107 541h319l-104 -520q-8 -39 -8 -78q0 -86 46.5 -131t137.5 -45q122 0 201 71t108 213l99 490h319l-186 -930 q-62 -308 -230 -447t-452 -139q-321 0 -512 152zM649 1243l307 295h353l-402 -295h-258z" />
<glyph unicode="&#xfe;" horiz-adv-x="1413" d="M-41 -397l383 1917h320l-103 -510q130 108 318 108q96 0 182.5 -33.5t152 -95t104 -156t38.5 -208.5q0 -137 -47.5 -256.5t-129.5 -203.5t-194.5 -132.5t-239.5 -48.5q-255 0 -356 166l-108 -547h-320zM457 492q0 -114 65.5 -179t184.5 -65q142 0 232.5 101t90.5 261 q0 113 -66.5 178.5t-185.5 65.5q-140 0 -230.5 -101t-90.5 -261z" />
<glyph unicode="&#xff;" horiz-adv-x="1409" d="M-10 -262l149 229q67 -58 166 -90.5t207 -32.5q156 0 235 69.5t109 219.5l8 35q-142 -115 -338 -115q-179 0 -287 97t-108 276q0 66 14 135l107 541h319l-104 -520q-8 -39 -8 -78q0 -86 46.5 -131t137.5 -45q122 0 201 71t108 213l99 490h319l-186 -930 q-62 -308 -230 -447t-452 -139q-321 0 -512 152zM518 1380q0 68 45 112t107 44q58 0 96.5 -35t38.5 -92q0 -68 -46 -112t-108 -44q-58 0 -95.5 34.5t-37.5 92.5zM934 1380q0 69 44 112.5t107 43.5q57 0 95.5 -35t38.5 -92q0 -68 -45 -112t-107 -44q-58 0 -95.5 34.5 t-37.5 92.5z" />
<glyph unicode="&#x152;" horiz-adv-x="2326" d="M104 598q0 250 113 440.5t315.5 293t464.5 102.5h1385l-53 -267h-754l-62 -311h666l-51 -258h-668l-65 -332h782l-55 -266h-1311q-329 0 -518 161t-189 437zM440 616q0 -162 104.5 -253t303.5 -91h219l176 889h-256q-252 0 -399.5 -153t-147.5 -392z" />
<glyph unicode="&#x153;" horiz-adv-x="2174" d="M61 485q0 132 48.5 249t133 201.5t205.5 133.5t261 49q145 0 257.5 -51t178.5 -145q86 94 204.5 145t258.5 51q110 0 203.5 -31.5t164 -92.5t110.5 -156t40 -215q0 -41 -2 -64l-850 -156q22 -83 88.5 -123t183.5 -40q186 0 297 102l133 -211q-186 -147 -458 -147 q-146 0 -261 51.5t-184 148.5q-88 -96 -210 -148t-267 -52q-241 0 -388 135.5t-147 365.5zM385 498q0 -118 65 -184t181 -66q147 0 238.5 100.5t91.5 255.5q0 118 -65 184t-181 66q-147 0 -238.5 -100.5t-91.5 -255.5zM1272 592l557 102q-12 88 -77 136.5t-163 48.5 q-128 0 -211 -79.5t-106 -207.5z" />
<glyph unicode="&#x178;" horiz-adv-x="1607" d="M72 -27l166 248q183 -162 440 -162q173 0 275 89t141 284l14 70q-163 -160 -408 -160q-224 0 -352.5 125t-128.5 352q0 80 19 180l86 435h333l-90 -443q-12 -65 -12 -117q0 -124 67 -186.5t193 -62.5q147 0 250.5 88t138.5 270l90 451h334l-205 -1016 q-126 -639 -759 -639q-379 0 -592 194zM676 1688q0 68 44.5 111.5t106.5 43.5q58 0 97 -35t39 -92q0 -68 -46 -111.5t-108 -43.5q-58 0 -95.5 34.5t-37.5 92.5zM1092 1688q0 69 44 112t107 43q57 0 95 -35t38 -92q0 -68 -44.5 -111.5t-106.5 -43.5q-58 0 -95.5 34.5 t-37.5 92.5z" />
<glyph unicode="&#x2c6;" d="M342 1243l311 295h281l231 -295h-227l-158 154l-198 -154h-240z" />
<glyph unicode="&#x2dc;" d="M369 1251q23 145 94 222t178 77q48 0 92 -20.5t72 -45t61 -45t60 -20.5q42 0 70.5 30t37.5 81h162q-23 -140 -93.5 -216.5t-176.5 -76.5q-48 0 -93 20t-73 44.5t-61 44.5t-60 20q-41 0 -70.5 -31t-38.5 -84h-161z" />
<glyph unicode="&#x2000;" horiz-adv-x="1020" />
<glyph unicode="&#x2001;" horiz-adv-x="2040" />
<glyph unicode="&#x2002;" horiz-adv-x="1020" />
<glyph unicode="&#x2003;" horiz-adv-x="2040" />
<glyph unicode="&#x2004;" horiz-adv-x="680" />
<glyph unicode="&#x2005;" horiz-adv-x="510" />
<glyph unicode="&#x2006;" horiz-adv-x="340" />
<glyph unicode="&#x2007;" horiz-adv-x="340" />
<glyph unicode="&#x2008;" horiz-adv-x="255" />
<glyph unicode="&#x2009;" horiz-adv-x="408" />
<glyph unicode="&#x200a;" horiz-adv-x="113" />
<glyph unicode="&#x2010;" horiz-adv-x="790" d="M86 449l51 256h580l-51 -256h-580z" />
<glyph unicode="&#x2011;" horiz-adv-x="790" d="M86 449l51 256h580l-51 -256h-580z" />
<glyph unicode="&#x2012;" horiz-adv-x="790" d="M86 449l51 256h580l-51 -256h-580z" />
<glyph unicode="&#x2013;" horiz-adv-x="1024" d="M-14 477l39 199h1024l-39 -199h-1024z" />
<glyph unicode="&#x2014;" horiz-adv-x="2048" d="M-14 477l39 199h2048l-39 -199h-2048z" />
<glyph unicode="&#x2018;" horiz-adv-x="536" d="M162 1008q0 43 15.5 82t53.5 100l205 330h201l-156 -330q80 -54 80 -154q0 -94 -61.5 -153.5t-151.5 -59.5q-82 0 -134 51.5t-52 133.5z" />
<glyph unicode="&#x2019;" horiz-adv-x="536" d="M150 840l155 329q-80 54 -80 154q0 94 61.5 153.5t151.5 59.5q83 0 135 -51t52 -133q0 -44 -15.5 -83.5t-54.5 -99.5l-203 -329h-202z" />
<glyph unicode="&#x201a;" horiz-adv-x="536" d="M-82 -315l158 329q-80 54 -80 154q0 95 61 154t152 59q82 0 134 -51t52 -133q0 -43 -15.5 -82t-55.5 -101l-205 -329h-201z" />
<glyph unicode="&#x201c;" horiz-adv-x="1019" d="M162 1008q0 43 15.5 82t53.5 100l205 330h201l-156 -330q80 -54 80 -154q0 -94 -61.5 -153.5t-151.5 -59.5q-82 0 -134 51.5t-52 133.5zM645 1008q0 42 15.5 81t54.5 101l205 330h200l-155 -330q79 -53 79 -154q0 -94 -61.5 -153.5t-151.5 -59.5q-82 0 -134 51.5 t-52 133.5z" />
<glyph unicode="&#x201d;" horiz-adv-x="1019" d="M150 840l155 329q-80 54 -80 154q0 94 61.5 153.5t151.5 59.5q83 0 135 -51t52 -133q0 -44 -15.5 -83.5t-54.5 -99.5l-203 -329h-202zM633 840l155 329q-79 53 -79 154q0 94 61.5 153.5t151.5 59.5q83 0 134.5 -51t51.5 -133q0 -44 -15.5 -83.5t-54.5 -99.5l-202 -329 h-203z" />
<glyph unicode="&#x201e;" horiz-adv-x="1019" d="M-82 -315l158 329q-80 54 -80 154q0 95 61 154t152 59q82 0 134 -51t52 -133q0 -43 -15.5 -82t-55.5 -101l-205 -329h-201zM401 -315l158 329q-80 54 -80 154q0 95 61 154t152 59q82 0 134.5 -51.5t52.5 -132.5q0 -42 -16 -81t-56 -102l-205 -329h-201z" />
<glyph unicode="&#x2022;" horiz-adv-x="733" d="M113 553q0 121 78 198.5t196 77.5q101 0 171.5 -67.5t70.5 -169.5q0 -120 -79.5 -199.5t-193.5 -79.5q-103 0 -173 69t-70 171z" />
<glyph unicode="&#x2026;" horiz-adv-x="1634" d="M-4 168q0 95 61 154t152 59q82 0 134 -51t52 -133q0 -93 -62 -153t-149 -60q-82 0 -135 52t-53 132zM543 168q0 95 61 154t152 59q82 0 134 -51t52 -133q0 -93 -62 -153t-149 -60q-82 0 -135 52t-53 132zM1092 168q0 95 61 154t152 59q82 0 134 -51t52 -133 q0 -93 -62 -153t-149 -60q-82 0 -135 52t-53 132z" />
<glyph unicode="&#x202f;" horiz-adv-x="408" />
<glyph unicode="&#x2039;" horiz-adv-x="700" d="M74 551l368 401h293l-364 -409l192 -391h-280z" />
<glyph unicode="&#x203a;" horiz-adv-x="702" d="M-33 152l365 409l-193 391h281l209 -401l-369 -399h-293z" />
<glyph unicode="&#x205f;" horiz-adv-x="510" />
<glyph unicode="&#x20ac;" horiz-adv-x="1681" d="M49 489l35 173h203q3 60 14 110h-195l35 172h209q97 235 315.5 374.5t510.5 139.5q192 0 339.5 -66t221.5 -188l-238 -196q-114 168 -346 168q-144 0 -257.5 -61.5t-182.5 -170.5h532l-35 -172h-571q-13 -58 -16 -110h565l-35 -173h-512q36 -109 133.5 -170t247.5 -61 q228 0 381 166l196 -201q-214 -248 -606 -248q-291 0 -477 139.5t-223 374.5h-244z" />
<glyph unicode="&#x2122;" horiz-adv-x="2142" d="M150 1262l34 172h809l-35 -172h-288l-135 -678h-232l135 678h-288zM930 584l170 850h184l240 -514l428 514h194l-166 -850h-215l95 477l-328 -389h-105l-186 393l-96 -481h-215z" />
<glyph unicode="&#x25fc;" horiz-adv-x="1105" d="M0 0v1106h1106v-1106h-1106z" />
</font>
</defs>
</svg>
